<svg width="77" height="77" viewBox="0 0 77 77" fill="none" xmlns="http://www.w3.org/2000/svg">
<path d="M73.3 6.29C71.68 6.29 70.36 4.97 70.36 3.35C70.36 1.73 71.68 0.410004 73.3 0.410004C74.92 0.410004 76.24 1.73 76.24 3.35C76.24 4.97 74.93 6.29 73.3 6.29ZM76.24 20.94C76.24 19.32 74.92 18 73.3 18C71.68 18 70.36 19.32 70.36 20.94C70.36 22.56 71.68 23.88 73.3 23.88C74.93 23.88 76.24 22.57 76.24 20.94ZM76.24 38.53C76.24 36.91 74.92 35.59 73.3 35.59C71.68 35.59 70.36 36.91 70.36 38.53C70.36 40.15 71.68 41.47 73.3 41.47C74.93 41.47 76.24 40.16 76.24 38.53ZM76.24 56.12C76.24 54.5 74.92 53.18 73.3 53.18C71.68 53.18 70.36 54.5 70.36 56.12C70.36 57.74 71.68 59.06 73.3 59.06C74.93 59.07 76.24 57.75 76.24 56.12ZM76.24 73.72C76.24 72.1 74.92 70.78 73.3 70.78C71.68 70.78 70.36 72.1 70.36 73.72C70.36 75.34 71.68 76.66 73.3 76.66C74.93 76.66 76.24 75.34 76.24 73.72ZM58.65 3.35C58.65 1.73 57.33 0.410004 55.71 0.410004C54.09 0.410004 52.77 1.73 52.77 3.35C52.77 4.97 54.09 6.29 55.71 6.29C57.34 6.29 58.65 4.97 58.65 3.35ZM58.65 20.94C58.65 19.32 57.33 18 55.71 18C54.09 18 52.77 19.32 52.77 20.94C52.77 22.56 54.09 23.88 55.71 23.88C57.34 23.88 58.65 22.57 58.65 20.94ZM58.65 38.53C58.65 36.91 57.33 35.59 55.71 35.59C54.09 35.59 52.77 36.91 52.77 38.53C52.77 40.15 54.09 41.47 55.71 41.47C57.34 41.47 58.65 40.16 58.65 38.53ZM58.65 56.12C58.65 54.5 57.33 53.18 55.71 53.18C54.09 53.18 52.77 54.5 52.77 56.12C52.77 57.74 54.09 59.06 55.71 59.06C57.34 59.07 58.65 57.75 58.65 56.12ZM58.65 73.72C58.65 72.1 57.33 70.78 55.71 70.78C54.09 70.78 52.77 72.1 52.77 73.72C52.77 75.34 54.09 76.66 55.71 76.66C57.34 76.66 58.65 75.34 58.65 73.72ZM41.06 3.35C41.06 1.73 39.74 0.410004 38.12 0.410004C36.5 0.410004 35.18 1.73 35.18 3.35C35.18 4.97 36.5 6.29 38.12 6.29C39.74 6.29 41.06 4.97 41.06 3.35ZM41.06 20.94C41.06 19.32 39.74 18 38.12 18C36.5 18 35.18 19.32 35.18 20.94C35.18 22.56 36.5 23.88 38.12 23.88C39.74 23.88 41.06 22.57 41.06 20.94ZM41.06 38.53C41.06 36.91 39.74 35.59 38.12 35.59C36.5 35.59 35.18 36.91 35.18 38.53C35.18 40.15 36.5 41.47 38.12 41.47C39.74 41.47 41.06 40.16 41.06 38.53ZM41.06 56.12C41.06 54.5 39.74 53.18 38.12 53.18C36.5 53.18 35.18 54.5 35.18 56.12C35.18 57.74 36.5 59.06 38.12 59.06C39.74 59.06 41.06 57.75 41.06 56.12ZM41.06 73.72C41.06 72.1 39.74 70.78 38.12 70.78C36.5 70.78 35.18 72.1 35.18 73.72C35.18 75.34 36.5 76.66 38.12 76.66C39.74 76.66 41.06 75.34 41.06 73.72ZM23.47 3.35C23.47 1.73 22.15 0.410004 20.53 0.410004C18.91 0.410004 17.59 1.73 17.59 3.35C17.59 4.97 18.91 6.29 20.53 6.29C22.15 6.29 23.47 4.97 23.47 3.35ZM23.47 20.94C23.47 19.32 22.15 18 20.53 18C18.91 18 17.59 19.32 17.59 20.94C17.59 22.56 18.91 23.88 20.53 23.88C22.15 23.88 23.47 22.57 23.47 20.94ZM23.47 38.53C23.47 36.91 22.15 35.59 20.53 35.59C18.91 35.59 17.59 36.91 17.59 38.53C17.59 40.15 18.91 41.47 20.53 41.47C22.15 41.47 23.47 40.16 23.47 38.53ZM23.47 56.12C23.47 54.5 22.15 53.18 20.53 53.18C18.91 53.18 17.59 54.5 17.59 56.12C17.59 57.74 18.91 59.06 20.53 59.06C22.15 59.07 23.47 57.75 23.47 56.12ZM23.47 73.72C23.47 72.1 22.15 70.78 20.53 70.78C18.91 70.78 17.59 72.1 17.59 73.72C17.59 75.34 18.91 76.66 20.53 76.66C22.15 76.66 23.47 75.34 23.47 73.72ZM5.88 3.35C5.88 1.73 4.56 0.410004 2.94 0.410004C1.32 0.410004 0 1.73 0 3.35C0 4.97 1.32 6.29 2.94 6.29C4.56 6.29 5.88 4.97 5.88 3.35ZM5.88 20.94C5.88 19.32 4.56 18 2.94 18C1.32 18 0 19.32 0 20.94C0 22.56 1.32 23.88 2.94 23.88C4.56 23.88 5.88 22.57 5.88 20.94ZM5.88 38.53C5.88 36.91 4.56 35.59 2.94 35.59C1.32 35.59 0 36.91 0 38.53C0 40.15 1.32 41.47 2.94 41.47C4.56 41.47 5.88 40.16 5.88 38.53ZM5.88 56.12C5.88 54.5 4.56 53.18 2.94 53.18C1.32 53.18 0 54.5 0 56.12C0 57.74 1.32 59.06 2.94 59.06C4.56 59.07 5.88 57.75 5.88 56.12ZM5.88 73.72C5.88 72.1 4.56 70.78 2.94 70.78C1.32 70.78 0 72.1 0 73.72C0 75.34 1.32 76.66 2.94 76.66C4.56 76.66 5.88 75.34 5.88 73.72Z" fill="black"/>
</svg>
